<?xml version="1.0" encoding="UTF-8"?><svg id="_层_1" xmlns="http://www.w3.org/2000/svg" viewBox="0 0 328.06 387.12"><defs><style>.cls-1{fill:#38c2ff;}.cls-2{fill:#1064f9;}.cls-3{fill:#0d51fc;}.cls-4{fill:#0b72fd;}.cls-5{fill:#f9dd10;}.cls-6{fill:#1069f9;}.cls-7{fill:#1c26d5;}</style></defs><path class="cls-2" d="M328.06,135.54V59.74c-24.31,2.53-47.33,9.44-68.25,19.91,26.72,13.37,50.02,32.55,68.25,55.89Z"/><path class="cls-3" d="M328.06,59.74v-5.86c0-29.76-24.12-53.88-53.88-53.88s-53.88,24.12-53.88,53.88v11c13.81,3.54,27.03,8.52,39.51,14.77,20.92-10.47,43.93-17.37,68.25-19.91Z"/><path class="cls-4" d="M259.81,79.65c-14.22,7.12-27.47,15.88-39.51,26.04v28.51c27.27,28.48,44.03,67.11,44.03,109.66,0,56.65-29.71,106.35-74.38,134.4,79.93-24.94,138.11-99.65,138.11-187.68v-55.03c-18.22-23.35-41.53-42.53-68.25-55.89Z"/><path class="cls-6" d="M259.81,79.65c-12.48-6.25-25.7-11.23-39.51-14.77v40.81c12.04-10.16,25.29-18.93,39.51-26.04Z"/><path class="cls-7" d="M264.33,243.85c0-42.55-16.76-81.18-44.03-109.66v56.37c0,4.73-.38,9.37-1.1,13.9,.72,5.89,1.1,11.89,1.1,17.97,0,81.09-65.73,146.82-146.82,146.82-2.85,0-5.69-.09-8.5-.25,19.53,11.5,42.27,18.11,66.52,18.11,20.34,0,39.97-3.11,58.44-8.87,44.68-28.05,74.38-77.75,74.38-134.4Z"/><path class="cls-4" d="M220.3,222.44c0-6.08-.38-12.08-1.1-17.97-5.16,32.65-28.18,59.43-58.7,70.01-19.46,12.14-42.44,19.17-67.07,19.17-36.93,0-70.17-15.78-93.35-40.97-.05,.98-.08,1.96-.08,2.95,0,48.25,26.13,90.51,64.98,113.39,2.81,.16,5.65,.25,8.5,.25,81.09,0,146.82-65.73,146.82-146.82Z"/><path class="cls-1" d="M107.76,255.62c0-29.76-24.12-53.88-53.88-53.88S1.61,224.29,.08,252.68c23.18,25.19,56.42,40.97,93.35,40.97,24.63,0,47.61-7.02,67.07-19.17-9.1,3.15-18.85,4.89-29,4.89-13.09,0-23.75-10.65-23.75-23.75Z"/><circle class="cls-3" cx="80.28" cy="116.64" r="21.15"/><circle class="cls-5" cx="156.45" cy="188.91" r="21.15"/></svg>